<svg width="98" height="50" viewBox="0 0 98 50" fill="none" xmlns="http://www.w3.org/2000/svg">
<path d="M21.2535 45.7073L21.2302 35.8783L14.7648 46.6112C14.5098 47.0351 14.0475 47.2945 13.5488 47.2945H12.6661C12.2009 47.2945 11.7693 47.0547 11.5273 46.6617L5.07383 36.1753V49.7361H0V26.6394H4.4729L13.2182 40.9924L21.8306 26.6394H26.2705L26.337 49.7361H25.339C23.0864 49.7361 21.2586 47.9339 21.2535 45.7073Z" fill="#EE317D"/>
<path d="M43.0119 42.3123H30.7423C30.9865 43.4127 31.5653 44.2813 32.4781 44.919C33.3902 45.5574 34.5251 45.8757 35.8826 45.8757C36.8169 45.8757 37.6462 45.7387 38.3692 45.4631C38.5436 45.3968 38.7151 45.321 38.8838 45.2363C39.8806 44.7343 41.087 44.9078 41.8453 45.7208L43.1596 47.1294C41.4682 49.0433 38.998 50 35.7491 50C33.7242 50 31.9322 49.6098 30.3748 48.8283C28.8168 48.0479 27.6155 46.9638 26.7698 45.5782C25.924 44.1926 25.5015 42.62 25.5015 40.8599C25.5015 39.1223 25.9189 37.5553 26.7533 36.1579C27.5877 34.7611 28.7339 33.6724 30.1913 32.8915C31.6488 32.1111 33.2789 31.7198 35.0811 31.7198C36.8391 31.7198 38.43 32.0943 39.8545 32.8415C41.2784 33.5894 42.3968 34.6617 43.209 36.0585C44.0213 37.4554 44.4274 39.0774 44.4274 40.925L44.4268 40.9497C44.4063 41.7088 43.7787 42.3123 43.0119 42.3123ZM32.1446 36.6042C31.3432 37.2645 30.8536 38.1661 30.6758 39.3098H39.5217C39.3433 38.188 38.8537 37.292 38.0528 36.6205C37.2514 35.9496 36.2722 35.6144 35.1152 35.6144C33.9355 35.6144 32.9455 35.944 32.1446 36.6042Z" fill="#EE317D"/>
<path d="M18.459 19.5333H7.61046L5.54072 24.4824H0L9.43824 3.55105C10.0318 2.23449 11.3541 1.38617 12.8127 1.38617H15.7554L26.2035 24.4824H20.5288L18.459 19.5333ZM16.7568 15.4747L13.0518 6.63219L9.3468 15.4747H16.7568Z" fill="#181A1E"/>
<path d="M26.8732 0H32.0805V24.4818H26.8732V0Z" fill="#181A1E"/>
<path d="M33.4095 0H38.6169V24.4818H33.4095V0Z" fill="#181A1E"/>
<path d="M43.9753 23.5745C42.4729 22.7941 41.2989 21.71 40.4537 20.3244C39.608 18.9388 39.1854 17.3662 39.1854 15.6061C39.1854 13.8466 39.608 12.2735 40.4537 10.8878C41.2995 9.50223 42.4735 8.41866 43.9753 7.63771C45.4776 6.85732 47.1742 6.466 49.0656 6.466C50.9564 6.466 52.6479 6.85676 54.1394 7.63771C55.6304 8.41866 56.7987 9.50223 57.6444 10.8878C58.4902 12.2735 58.9133 13.8466 58.9133 15.6061C58.9133 17.3662 58.4902 18.9382 57.6444 20.3244C56.7987 21.71 55.6304 22.7941 54.1394 23.5745C52.6484 24.3555 50.957 24.7462 49.0656 24.7462C47.1736 24.7462 45.4776 24.356 43.9753 23.5745ZM52.3536 19.1864C53.2102 18.2954 53.639 17.1023 53.639 15.6061C53.639 14.1105 53.2102 12.9169 52.3536 12.0264C51.4965 11.136 50.4009 10.6902 49.0661 10.6902C47.7308 10.6902 46.6289 11.136 45.7616 12.0264C44.8937 12.9174 44.4598 14.1105 44.4598 15.6061C44.4598 17.1023 44.8937 18.2954 45.7616 19.1864C46.6295 20.0768 47.7308 20.5226 49.0661 20.5226C50.4009 20.5226 51.4965 20.0774 52.3536 19.1864Z" fill="#181A1E"/>
<path d="M88.059 6.59907L81.5499 24.3499H76.5431L72.5041 13.3295L68.3317 24.3499H63.3249L56.8492 6.59907H61.7561L65.995 18.6087L70.4014 6.59907H74.8079L79.0803 18.6087L83.3299 6.93649C83.4038 6.73382 83.598 6.59851 83.8161 6.59851H88.059V6.59907Z" fill="#181A1E"/>
<path d="M48.4865 45.5182V32.2384H49.3117L58.8889 44.3231H58.4475V32.2384H59.4263V45.5182H58.6202L49.0238 33.4336H49.4653V45.5182H48.4865Z" fill="#010101"/>
<path d="M67.8798 45.5941C66.869 45.5941 65.9733 45.3791 65.1928 44.9491C64.4251 44.5191 63.8173 43.9247 63.3695 43.1658C62.9345 42.407 62.7169 41.5406 62.7169 40.5668C62.7169 39.5803 62.9217 38.7139 63.3311 37.9677C63.7533 37.2089 64.3291 36.6144 65.0584 36.1844C65.7878 35.7544 66.6067 35.5394 67.5151 35.5394C68.4236 35.5394 69.2361 35.7481 69.9526 36.1654C70.6819 36.5828 71.2513 37.1709 71.6607 37.9298C72.083 38.676 72.2941 39.5423 72.2941 40.5288C72.2941 40.5668 72.2877 40.611 72.2749 40.6616C72.2749 40.6996 72.2749 40.7438 72.2749 40.7944H63.4271V40.0545H71.7567L71.3728 40.415C71.3856 39.6435 71.2193 38.9542 70.8738 38.3471C70.5412 37.7274 70.0869 37.2468 69.5112 36.9053C68.9354 36.5512 68.27 36.3741 67.5151 36.3741C66.773 36.3741 66.1076 36.5512 65.5191 36.9053C64.9433 37.2468 64.4891 37.7274 64.1564 38.3471C63.8237 38.9542 63.6574 39.6498 63.6574 40.434V40.6047C63.6574 41.4141 63.8365 42.135 64.1948 42.7674C64.5658 43.3871 65.0712 43.8741 65.711 44.2282C66.3508 44.5697 67.0801 44.7404 67.899 44.7404C68.5387 44.7404 69.1337 44.6266 69.6839 44.3989C70.2469 44.1713 70.7203 43.8235 71.1041 43.3555L71.6607 43.9816C71.2257 44.5128 70.6755 44.9175 70.0102 45.1957C69.3576 45.4613 68.6475 45.5941 67.8798 45.5941Z" fill="#010101"/>
<path d="M77.033 45.5182L73.2329 35.6153H74.1541L77.6856 44.987H77.2825L80.91 35.6153H81.7352L85.3435 44.987H84.9212L88.5103 35.6153H89.3931L85.593 45.5182H84.6909L81.1595 36.5259H81.4665L77.9159 45.5182H77.033Z" fill="#010101"/>
<path d="M94.0463 45.5941C93.2146 45.5941 92.4341 45.474 91.7048 45.2337C90.9883 44.9934 90.4317 44.6898 90.035 44.3231L90.4765 43.5642C90.8603 43.893 91.3721 44.1776 92.0119 44.4179C92.6516 44.6456 93.3426 44.7594 94.0847 44.7594C95.1339 44.7594 95.8888 44.5886 96.3494 44.2472C96.8101 43.9057 97.0404 43.4567 97.0404 42.9002C97.0404 42.4955 96.9188 42.1793 96.6757 41.9517C96.4454 41.7114 96.1319 41.528 95.7353 41.4015C95.3386 41.275 94.9036 41.1738 94.4302 41.0979C93.9567 41.0094 93.4833 40.9146 93.0099 40.8134C92.5365 40.7122 92.1015 40.5668 91.7048 40.377C91.3082 40.1873 90.9883 39.9281 90.7452 39.5992C90.5149 39.2577 90.3997 38.8088 90.3997 38.2523C90.3997 37.7464 90.5404 37.2911 90.8219 36.8863C91.1034 36.4816 91.5257 36.1591 92.0887 35.9188C92.6516 35.6659 93.3554 35.5394 94.1999 35.5394C94.8268 35.5394 95.4538 35.6279 96.0807 35.805C96.7205 35.9821 97.2387 36.216 97.6353 36.5069L97.1939 37.2658C96.7717 36.9496 96.2983 36.7219 95.7737 36.5828C95.2491 36.4437 94.7181 36.3741 94.1807 36.3741C93.2082 36.3741 92.4917 36.5512 92.0311 36.9053C91.5833 37.2594 91.3593 37.7021 91.3593 38.2333C91.3593 38.6507 91.4745 38.9858 91.7048 39.2388C91.9479 39.4791 92.2678 39.6688 92.6644 39.8079C93.0611 39.9344 93.4961 40.0419 93.9695 40.1304C94.443 40.2063 94.9164 40.2948 95.3898 40.396C95.8632 40.4972 96.2983 40.6426 96.6949 40.8324C97.0916 41.0094 97.405 41.2624 97.6353 41.5912C97.8785 41.9074 98 42.3374 98 42.8812C98 43.4251 97.8465 43.8994 97.5394 44.3041C97.2451 44.7088 96.8037 45.025 96.2151 45.2526C95.6265 45.4803 94.9036 45.5941 94.0463 45.5941Z" fill="#010101"/>
</svg>
