<svg width="89" height="50" viewBox="0 0 89 50" fill="none" xmlns="http://www.w3.org/2000/svg">
<path d="M21.2535 45.7073L21.2302 35.8783L14.7648 46.6112C14.5098 47.0351 14.0475 47.2945 13.5488 47.2945H12.6661C12.2009 47.2945 11.7693 47.0547 11.5273 46.6617L5.07383 36.1753V49.7361H0V26.6394H4.4729L13.2182 40.9924L21.8306 26.6394H26.2705L26.337 49.7361H25.339C23.0864 49.7361 21.2586 47.9339 21.2535 45.7073Z" fill="#EE317D"/>
<path d="M43.0119 42.3123H30.7423C30.9865 43.4127 31.5653 44.2813 32.4781 44.919C33.3902 45.5574 34.5251 45.8757 35.8826 45.8757C36.8169 45.8757 37.6462 45.7387 38.3692 45.4631C38.5436 45.3968 38.7151 45.321 38.8838 45.2363C39.8806 44.7343 41.087 44.9078 41.8453 45.7208L43.1596 47.1294C41.4682 49.0433 38.998 50 35.7491 50C33.7242 50 31.9322 49.6098 30.3748 48.8283C28.8168 48.0479 27.6155 46.9638 26.7698 45.5782C25.924 44.1926 25.5015 42.62 25.5015 40.8599C25.5015 39.1223 25.9189 37.5553 26.7533 36.1579C27.5877 34.7611 28.7339 33.6724 30.1913 32.8915C31.6488 32.1111 33.2789 31.7198 35.0811 31.7198C36.8391 31.7198 38.43 32.0943 39.8545 32.8415C41.2784 33.5894 42.3968 34.6617 43.209 36.0585C44.0213 37.4554 44.4274 39.0774 44.4274 40.925L44.4268 40.9497C44.4063 41.7088 43.7787 42.3123 43.0119 42.3123ZM32.1446 36.6042C31.3432 37.2645 30.8536 38.1661 30.6758 39.3098H39.5217C39.3433 38.188 38.8537 37.292 38.0528 36.6205C37.2514 35.9496 36.2722 35.6144 35.1152 35.6144C33.9355 35.6144 32.9455 35.944 32.1446 36.6042Z" fill="#EE317D"/>
<path d="M18.459 19.5333H7.61046L5.54072 24.4824H0L9.43824 3.55105C10.0318 2.23449 11.3541 1.38617 12.8127 1.38617H15.7554L26.2035 24.4824H20.5288L18.459 19.5333ZM16.7568 15.4747L13.0518 6.63219L9.3468 15.4747H16.7568Z" fill="#181A1E"/>
<path d="M26.8732 0H32.0805V24.4818H26.8732V0Z" fill="#181A1E"/>
<path d="M33.4095 0H38.6169V24.4818H33.4095V0Z" fill="#181A1E"/>
<path d="M43.9753 23.5745C42.4729 22.7941 41.2989 21.71 40.4537 20.3244C39.608 18.9388 39.1854 17.3662 39.1854 15.6061C39.1854 13.8466 39.608 12.2735 40.4537 10.8878C41.2995 9.50223 42.4735 8.41866 43.9753 7.63771C45.4776 6.85732 47.1742 6.466 49.0656 6.466C50.9564 6.466 52.6479 6.85676 54.1394 7.63771C55.6304 8.41866 56.7987 9.50223 57.6444 10.8878C58.4902 12.2735 58.9133 13.8466 58.9133 15.6061C58.9133 17.3662 58.4902 18.9382 57.6444 20.3244C56.7987 21.71 55.6304 22.7941 54.1394 23.5745C52.6484 24.3555 50.957 24.7462 49.0656 24.7462C47.1736 24.7462 45.4776 24.356 43.9753 23.5745ZM52.3536 19.1864C53.2102 18.2954 53.639 17.1023 53.639 15.6061C53.639 14.1105 53.2102 12.9169 52.3536 12.0264C51.4965 11.136 50.4009 10.6902 49.0661 10.6902C47.7308 10.6902 46.6289 11.136 45.7616 12.0264C44.8937 12.9174 44.4598 14.1105 44.4598 15.6061C44.4598 17.1023 44.8937 18.2954 45.7616 19.1864C46.6295 20.0768 47.7308 20.5226 49.0661 20.5226C50.4009 20.5226 51.4965 20.0774 52.3536 19.1864Z" fill="#181A1E"/>
<path d="M88.059 6.59907L81.5499 24.3499H76.5431L72.5041 13.3295L68.3317 24.3499H63.3249L56.8492 6.59907H61.7561L65.995 18.6087L70.4014 6.59907H74.8079L79.0803 18.6087L83.3299 6.93649C83.4038 6.73382 83.598 6.59851 83.8161 6.59851H88.059V6.59907Z" fill="#181A1E"/>
</svg>
