<svg width="24" height="24" viewBox="0 0 24 24" fill="none" xmlns="http://www.w3.org/2000/svg">
<path d="M21.5526 4.47988C20.615 3.52141 19.3919 3.02852 18.1607 3.0012C16.8572 2.97227 15.5446 3.46516 14.5519 4.47988L12.598 6.47848C13.0926 6.73948 13.5574 7.05954 13.9726 7.45881L15.7185 5.67297C16.362 5.01545 17.2069 4.68642 18.0523 4.68642C18.8972 4.68642 19.7426 5.01545 20.386 5.67297C21.6724 6.98916 21.6724 9.13038 20.386 10.4465L16.4968 14.4236C15.2491 15.6996 13.0765 15.6986 11.8299 14.4236C11.2063 13.7858 10.8631 12.9388 10.8631 12.0368C10.8631 11.4195 11.035 10.8333 11.3367 10.3168C10.9499 9.9523 10.4124 9.73957 9.84149 9.73957C9.81787 9.73957 9.7955 9.74548 9.77202 9.74615C9.42005 10.4499 9.21301 11.2238 9.21301 12.0368C9.21301 13.3892 9.72816 14.6609 10.6633 15.6167C11.5978 16.5731 12.8413 17.0999 14.1636 17.0999C15.4855 17.0999 16.7288 16.5731 17.6634 15.6167L21.5526 11.6397C22.5175 10.6525 23 9.35616 23 8.05977C23 6.76338 22.5175 5.46699 21.5526 4.47988ZM8.28145 18.3271C7.63798 18.9846 6.79312 19.3136 5.94773 19.3136C5.10283 19.3136 4.25744 18.9846 3.61398 18.3271C2.3276 17.0109 2.3276 14.8696 3.61398 13.5535L7.5032 9.57641C8.75088 8.30034 10.9235 8.30147 12.1701 9.57641C12.7937 10.2142 13.1369 11.0612 13.1369 11.9632C13.1369 12.5805 12.965 13.1667 12.6633 13.6833C13.0501 14.0477 13.5876 14.2605 14.1585 14.2605C14.1821 14.2605 14.2045 14.2546 14.228 14.2538C14.5799 13.5501 14.787 12.7763 14.787 11.9632C14.787 10.6108 14.2718 9.33911 13.3367 8.38331C12.4022 7.42696 11.1587 6.90014 9.8364 6.90014C8.51455 6.90014 7.27117 7.42696 6.33658 8.38331L2.44736 12.3604C1.48245 13.3475 1 14.6439 1 15.9403C1 17.2366 1.48245 18.533 2.44736 19.5202C3.34482 20.4375 4.50371 20.9283 5.68095 20.9927C7.03587 21.0668 8.41513 20.576 9.44807 19.5202L11.402 17.5215C10.9074 17.2606 10.4426 16.9405 10.0274 16.5412L8.28145 18.3271Z" fill="#58595D"/>
</svg>
