<svg width="24" height="24" viewBox="0 0 24 24" fill="none" xmlns="http://www.w3.org/2000/svg">
<path d="M19.0714 3H4.92857C3.86384 3 3 3.86384 3 4.92857V19.0714C3 20.1362 3.86384 21 4.92857 21H19.0714C20.1362 21 21 20.1362 21 19.0714V4.92857C21 3.86384 20.1362 3 19.0714 3ZM17.1067 9.38036C17.1147 9.49286 17.1147 9.60938 17.1147 9.72188C17.1147 13.2054 14.4629 17.2192 9.61741 17.2192C8.12277 17.2192 6.73661 16.7853 5.57143 16.0379C5.78437 16.0621 5.98929 16.0701 6.20625 16.0701C7.43973 16.0701 8.57277 15.6522 9.47679 14.9451C8.31964 14.921 7.34732 14.1616 7.01384 13.117C7.41964 13.1772 7.78527 13.1772 8.20312 13.0688C6.99777 12.8237 6.09375 11.7629 6.09375 10.4812V10.4491C6.4433 10.646 6.85312 10.7665 7.28304 10.7826C6.9216 10.5422 6.62531 10.216 6.42059 9.83323C6.21588 9.45044 6.10911 9.02293 6.10982 8.58884C6.10982 8.09866 6.23839 7.64866 6.46741 7.25893C7.76518 8.85804 9.71384 9.90268 11.8996 10.0152C11.5259 8.22723 12.8638 6.77679 14.471 6.77679C15.2304 6.77679 15.9134 7.0942 16.3955 7.60848C16.9902 7.49598 17.5607 7.275 18.067 6.97366C17.8701 7.58437 17.4563 8.09866 16.9098 8.42411C17.4402 8.36786 17.9545 8.2192 18.4286 8.01429C18.071 8.54063 17.621 9.0067 17.1067 9.38036Z" fill="#58595D"/>
</svg>
